<svg xmlns="http://www.w3.org/2000/svg" xmlns:xlink="http://www.w3.org/1999/xlink" width="500" zoomAndPan="magnify" viewBox="0 0 375 123.750003" height="165" preserveAspectRatio="xMidYMid meet" version="1.0"><defs><g/><clipPath id="64cb976127"><path d="M 0.378906 0 L 102 0 L 102 123.5 L 0.378906 123.5 Z M 0.378906 0 " clip-rule="nonzero"/></clipPath></defs><g clip-path="url(#64cb976127)"><path fill="#3a89c9" d="M 7.539062 39.429688 L 41.820312 85.660156 L 6.710938 48.558594 L 6.710938 91.140625 L 28.953125 103.921875 L 41.488281 111.226562 L 50.617188 123.507812 C 50.285156 123.425781 49.871094 123.34375 49.539062 123.09375 L 25.800781 109.398438 L 1.980469 95.703125 C 0.984375 95.125 0.402344 94.042969 0.402344 92.964844 L 0.402344 38.019531 C 0.402344 36.773438 1.148438 35.613281 2.230469 35.113281 L 3.058594 34.699219 Z M 85.480469 26.730469 L 85.480469 6.3125 L 80.746094 6.3125 L 80.746094 20.089844 L 74.355469 16.519531 L 74.355469 0.00390625 L 91.785156 0.00390625 L 91.785156 30.382812 L 100.335938 35.28125 C 101.332031 35.859375 101.914062 36.941406 101.914062 38.019531 L 101.914062 92.964844 C 101.914062 94.210938 101.164062 95.289062 100.003906 95.789062 L 76.515625 109.398438 L 57.671875 120.273438 L 57.257812 119.859375 L 57.007812 120.6875 L 53.523438 115.957031 L 53.191406 115.625 L 53.273438 115.542969 L 18.910156 69.308594 L 59.25 112.054688 L 73.359375 103.921875 L 95.523438 91.140625 L 95.523438 39.84375 L 85.480469 34.035156 Z M 52.777344 7.804688 L 76.515625 21.585938 L 80.746094 23.992188 L 80.746094 31.292969 L 73.359375 26.980469 L 51.117188 14.195312 L 28.953125 26.980469 L 13.433594 35.945312 L 9.617188 30.878906 L 25.800781 21.585938 L 49.539062 7.804688 C 50.617188 7.222656 51.78125 7.308594 52.777344 7.804688 " fill-opacity="1" fill-rule="nonzero"/></g><path fill="#3a89c9" d="M 63.234375 28.804688 L 63.234375 36.855469 C 63.234375 37.519531 62.652344 38.101562 61.988281 38.101562 L 53.9375 38.101562 C 53.273438 38.101562 52.691406 37.519531 52.691406 36.855469 L 52.691406 28.804688 C 52.691406 28.140625 53.273438 27.558594 53.9375 27.558594 L 61.988281 27.558594 C 62.652344 27.558594 63.234375 28.140625 63.234375 28.804688 " fill-opacity="1" fill-rule="evenodd"/><path fill="#3a89c9" d="M 63.234375 43.496094 L 63.234375 51.546875 C 63.234375 52.210938 62.652344 52.792969 61.988281 52.792969 L 53.9375 52.792969 C 53.273438 52.792969 52.691406 52.210938 52.691406 51.546875 L 52.691406 43.496094 C 52.691406 42.75 53.273438 42.25 53.9375 42.25 L 61.988281 42.25 C 62.652344 42.25 63.234375 42.75 63.234375 43.496094 " fill-opacity="1" fill-rule="evenodd"/><path fill="#3a89c9" d="M 49.621094 28.804688 L 49.621094 36.855469 C 49.621094 37.519531 49.042969 38.101562 48.378906 38.101562 L 40.324219 38.101562 C 39.578125 38.101562 39.082031 37.519531 39.082031 36.855469 L 39.082031 28.804688 C 39.082031 28.140625 39.578125 27.558594 40.324219 27.558594 L 48.378906 27.558594 C 49.042969 27.558594 49.621094 28.140625 49.621094 28.804688 " fill-opacity="1" fill-rule="evenodd"/><path fill="#3a89c9" d="M 49.621094 43.496094 L 49.621094 51.546875 C 49.621094 52.210938 49.042969 52.792969 48.378906 52.792969 L 40.324219 52.792969 C 39.578125 52.792969 39.082031 52.210938 39.082031 51.546875 L 39.082031 43.496094 C 39.082031 42.75 39.578125 42.25 40.324219 42.25 L 48.378906 42.25 C 49.042969 42.25 49.621094 42.75 49.621094 43.496094 " fill-opacity="1" fill-rule="evenodd"/><g fill="#000000" fill-opacity="1"><g transform="translate(101.703244, 76.358322)"><g><path d="M 3.4375 -28.9375 L 10.125 -28.9375 L 10.125 -5.453125 L 24.625 -5.453125 L 24.625 0 L 3.4375 0 Z M 3.4375 -28.9375 "/></g></g></g><g fill="#000000" fill-opacity="1"><g transform="translate(122.533518, 76.358322)"><g><path d="M 24.75 -11.03125 C 24.75 -10.945312 24.707031 -10.367188 24.625 -9.296875 L 7.8125 -9.296875 C 8.113281 -7.921875 8.828125 -6.832031 9.953125 -6.03125 C 11.085938 -5.226562 12.492188 -4.828125 14.171875 -4.828125 C 15.328125 -4.828125 16.351562 -5 17.25 -5.34375 C 18.144531 -5.695312 18.976562 -6.242188 19.75 -6.984375 L 23.1875 -3.265625 C 21.09375 -0.867188 18.035156 0.328125 14.015625 0.328125 C 11.503906 0.328125 9.285156 -0.160156 7.359375 -1.140625 C 5.429688 -2.117188 3.941406 -3.472656 2.890625 -5.203125 C 1.847656 -6.941406 1.328125 -8.914062 1.328125 -11.125 C 1.328125 -13.289062 1.84375 -15.25 2.875 -17 C 3.90625 -18.75 5.320312 -20.113281 7.125 -21.09375 C 8.9375 -22.070312 10.957031 -22.5625 13.1875 -22.5625 C 15.363281 -22.5625 17.332031 -22.09375 19.09375 -21.15625 C 20.851562 -20.21875 22.234375 -18.875 23.234375 -17.125 C 24.242188 -15.375 24.75 -13.34375 24.75 -11.03125 Z M 13.21875 -17.6875 C 11.757812 -17.6875 10.535156 -17.269531 9.546875 -16.4375 C 8.554688 -15.613281 7.953125 -14.488281 7.734375 -13.0625 L 18.6875 -13.0625 C 18.457031 -14.46875 17.847656 -15.585938 16.859375 -16.421875 C 15.867188 -17.265625 14.65625 -17.6875 13.21875 -17.6875 Z M 13.21875 -17.6875 "/></g></g></g><g fill="#000000" fill-opacity="1"><g transform="translate(144.479716, 76.358322)"><g><path d="M 2.96875 -22.234375 L 9.421875 -22.234375 L 9.421875 0 L 2.96875 0 Z M 6.1875 -25.328125 C 5.007812 -25.328125 4.046875 -25.671875 3.296875 -26.359375 C 2.554688 -27.054688 2.1875 -27.914062 2.1875 -28.9375 C 2.1875 -29.945312 2.554688 -30.796875 3.296875 -31.484375 C 4.046875 -32.179688 5.007812 -32.53125 6.1875 -32.53125 C 7.375 -32.53125 8.335938 -32.195312 9.078125 -31.53125 C 9.828125 -30.875 10.203125 -30.046875 10.203125 -29.046875 C 10.203125 -27.972656 9.828125 -27.082031 9.078125 -26.375 C 8.335938 -25.675781 7.375 -25.328125 6.1875 -25.328125 Z M 6.1875 -25.328125 "/></g></g></g><g fill="#000000" fill-opacity="1"><g transform="translate(152.78684, 76.358322)"><g><path d="M 10.453125 0.328125 C 8.609375 0.328125 6.800781 0.101562 5.03125 -0.34375 C 3.269531 -0.800781 1.867188 -1.375 0.828125 -2.0625 L 2.96875 -6.6875 C 3.96875 -6.0625 5.164062 -5.546875 6.5625 -5.140625 C 7.96875 -4.742188 9.347656 -4.546875 10.703125 -4.546875 C 13.429688 -4.546875 14.796875 -5.222656 14.796875 -6.578125 C 14.796875 -7.203125 14.421875 -7.648438 13.671875 -7.921875 C 12.929688 -8.203125 11.789062 -8.441406 10.25 -8.640625 C 8.425781 -8.910156 6.921875 -9.222656 5.734375 -9.578125 C 4.554688 -9.941406 3.53125 -10.578125 2.65625 -11.484375 C 1.789062 -12.398438 1.359375 -13.695312 1.359375 -15.375 C 1.359375 -16.78125 1.765625 -18.023438 2.578125 -19.109375 C 3.390625 -20.203125 4.570312 -21.050781 6.125 -21.65625 C 7.6875 -22.257812 9.53125 -22.5625 11.65625 -22.5625 C 13.226562 -22.5625 14.789062 -22.390625 16.34375 -22.046875 C 17.90625 -21.703125 19.191406 -21.226562 20.203125 -20.625 L 18.0625 -16.03125 C 16.101562 -17.132812 13.96875 -17.6875 11.65625 -17.6875 C 10.28125 -17.6875 9.242188 -17.492188 8.546875 -17.109375 C 7.859375 -16.722656 7.515625 -16.226562 7.515625 -15.625 C 7.515625 -14.9375 7.882812 -14.453125 8.625 -14.171875 C 9.375 -13.898438 10.5625 -13.640625 12.1875 -13.390625 C 14.007812 -13.085938 15.5 -12.765625 16.65625 -12.421875 C 17.8125 -12.078125 18.816406 -11.445312 19.671875 -10.53125 C 20.523438 -9.625 20.953125 -8.359375 20.953125 -6.734375 C 20.953125 -5.359375 20.535156 -4.132812 19.703125 -3.0625 C 18.878906 -1.988281 17.675781 -1.15625 16.09375 -0.5625 C 14.507812 0.03125 12.628906 0.328125 10.453125 0.328125 Z M 10.453125 0.328125 "/></g></g></g><g fill="#000000" fill-opacity="1"><g transform="translate(170.599981, 76.358322)"><g><path d="M 25.375 -22.234375 L 25.375 0 L 19.265625 0 L 19.265625 -2.640625 C 18.410156 -1.679688 17.390625 -0.945312 16.203125 -0.4375 C 15.015625 0.0703125 13.734375 0.328125 12.359375 0.328125 C 9.429688 0.328125 7.113281 -0.507812 5.40625 -2.1875 C 3.707031 -3.875 2.859375 -6.367188 2.859375 -9.671875 L 2.859375 -22.234375 L 9.296875 -22.234375 L 9.296875 -10.625 C 9.296875 -7.039062 10.796875 -5.25 13.796875 -5.25 C 15.347656 -5.25 16.585938 -5.75 17.515625 -6.75 C 18.453125 -7.757812 18.921875 -9.253906 18.921875 -11.234375 L 18.921875 -22.234375 Z M 25.375 -22.234375 "/></g></g></g><g fill="#000000" fill-opacity="1"><g transform="translate(194.860681, 76.358322)"><g><path d="M 9.140625 -19.296875 C 9.910156 -20.367188 10.945312 -21.179688 12.25 -21.734375 C 13.5625 -22.285156 15.070312 -22.5625 16.78125 -22.5625 L 16.78125 -16.609375 C 16.0625 -16.671875 15.578125 -16.703125 15.328125 -16.703125 C 13.484375 -16.703125 12.035156 -16.179688 10.984375 -15.140625 C 9.941406 -14.109375 9.421875 -12.5625 9.421875 -10.5 L 9.421875 0 L 2.96875 0 L 2.96875 -22.234375 L 9.140625 -22.234375 Z M 9.140625 -19.296875 "/></g></g></g><g fill="#000000" fill-opacity="1"><g transform="translate(208.540765, 76.358322)"><g><path d="M 24.75 -11.03125 C 24.75 -10.945312 24.707031 -10.367188 24.625 -9.296875 L 7.8125 -9.296875 C 8.113281 -7.921875 8.828125 -6.832031 9.953125 -6.03125 C 11.085938 -5.226562 12.492188 -4.828125 14.171875 -4.828125 C 15.328125 -4.828125 16.351562 -5 17.25 -5.34375 C 18.144531 -5.695312 18.976562 -6.242188 19.75 -6.984375 L 23.1875 -3.265625 C 21.09375 -0.867188 18.035156 0.328125 14.015625 0.328125 C 11.503906 0.328125 9.285156 -0.160156 7.359375 -1.140625 C 5.429688 -2.117188 3.941406 -3.472656 2.890625 -5.203125 C 1.847656 -6.941406 1.328125 -8.914062 1.328125 -11.125 C 1.328125 -13.289062 1.84375 -15.25 2.875 -17 C 3.90625 -18.75 5.320312 -20.113281 7.125 -21.09375 C 8.9375 -22.070312 10.957031 -22.5625 13.1875 -22.5625 C 15.363281 -22.5625 17.332031 -22.09375 19.09375 -21.15625 C 20.851562 -20.21875 22.234375 -18.875 23.234375 -17.125 C 24.242188 -15.375 24.75 -13.34375 24.75 -11.03125 Z M 13.21875 -17.6875 C 11.757812 -17.6875 10.535156 -17.269531 9.546875 -16.4375 C 8.554688 -15.613281 7.953125 -14.488281 7.734375 -13.0625 L 18.6875 -13.0625 C 18.457031 -14.46875 17.847656 -15.585938 16.859375 -16.421875 C 15.867188 -17.265625 14.65625 -17.6875 13.21875 -17.6875 Z M 13.21875 -17.6875 "/></g></g></g><g fill="#000000" fill-opacity="1"><g transform="translate(230.486961, 76.358322)"><g><path d="M 3.4375 -28.9375 L 10.125 -28.9375 L 10.125 0 L 3.4375 0 Z M 3.4375 -28.9375 "/></g></g></g><g fill="#000000" fill-opacity="1"><g transform="translate(239.91001, 76.358322)"><g><path d="M 31.453125 -22.5625 C 34.234375 -22.5625 36.441406 -21.738281 38.078125 -20.09375 C 39.722656 -18.457031 40.546875 -16.003906 40.546875 -12.734375 L 40.546875 0 L 34.09375 0 L 34.09375 -11.734375 C 34.09375 -13.492188 33.726562 -14.804688 33 -15.671875 C 32.269531 -16.546875 31.226562 -16.984375 29.875 -16.984375 C 28.363281 -16.984375 27.164062 -16.492188 26.28125 -15.515625 C 25.40625 -14.535156 24.96875 -13.082031 24.96875 -11.15625 L 24.96875 0 L 18.515625 0 L 18.515625 -11.734375 C 18.515625 -15.234375 17.109375 -16.984375 14.296875 -16.984375 C 12.804688 -16.984375 11.617188 -16.492188 10.734375 -15.515625 C 9.859375 -14.535156 9.421875 -13.082031 9.421875 -11.15625 L 9.421875 0 L 2.96875 0 L 2.96875 -22.234375 L 9.140625 -22.234375 L 9.140625 -19.671875 C 9.960938 -20.609375 10.972656 -21.320312 12.171875 -21.8125 C 13.367188 -22.3125 14.6875 -22.5625 16.125 -22.5625 C 17.6875 -22.5625 19.101562 -22.25 20.375 -21.625 C 21.644531 -21.007812 22.664062 -20.109375 23.4375 -18.921875 C 24.34375 -20.085938 25.488281 -20.984375 26.875 -21.609375 C 28.269531 -22.242188 29.796875 -22.5625 31.453125 -22.5625 Z M 31.453125 -22.5625 "/></g></g></g><g fill="#000000" fill-opacity="1"><g transform="translate(279.132358, 76.358322)"><g><path d="M 13.5625 0.328125 C 11.21875 0.328125 9.113281 -0.160156 7.25 -1.140625 C 5.394531 -2.117188 3.941406 -3.472656 2.890625 -5.203125 C 1.847656 -6.941406 1.328125 -8.914062 1.328125 -11.125 C 1.328125 -13.320312 1.847656 -15.285156 2.890625 -17.015625 C 3.941406 -18.753906 5.394531 -20.113281 7.25 -21.09375 C 9.113281 -22.070312 11.21875 -22.5625 13.5625 -22.5625 C 15.894531 -22.5625 17.984375 -22.070312 19.828125 -21.09375 C 21.679688 -20.113281 23.128906 -18.753906 24.171875 -17.015625 C 25.222656 -15.285156 25.75 -13.320312 25.75 -11.125 C 25.75 -8.914062 25.222656 -6.941406 24.171875 -5.203125 C 23.128906 -3.472656 21.679688 -2.117188 19.828125 -1.140625 C 17.984375 -0.160156 15.894531 0.328125 13.5625 0.328125 Z M 13.5625 -4.953125 C 15.207031 -4.953125 16.5625 -5.507812 17.625 -6.625 C 18.6875 -7.75 19.21875 -9.25 19.21875 -11.125 C 19.21875 -12.988281 18.6875 -14.476562 17.625 -15.59375 C 16.5625 -16.71875 15.207031 -17.28125 13.5625 -17.28125 C 11.90625 -17.28125 10.539062 -16.71875 9.46875 -15.59375 C 8.394531 -14.476562 7.859375 -12.988281 7.859375 -11.125 C 7.859375 -9.25 8.394531 -7.75 9.46875 -6.625 C 10.539062 -5.507812 11.90625 -4.953125 13.5625 -4.953125 Z M 13.5625 -4.953125 "/></g></g></g><g fill="#000000" fill-opacity="1"><g transform="translate(302.070492, 76.358322)"><g><path d="M 25.046875 -22.234375 L 15.65625 0 L 9.015625 0 L -0.328125 -22.234375 L 6.328125 -22.234375 L 12.484375 -7.109375 L 18.84375 -22.234375 Z M 25.046875 -22.234375 "/></g></g></g><g fill="#000000" fill-opacity="1"><g transform="translate(322.65279, 76.358322)"><g><path d="M 24.75 -11.03125 C 24.75 -10.945312 24.707031 -10.367188 24.625 -9.296875 L 7.8125 -9.296875 C 8.113281 -7.921875 8.828125 -6.832031 9.953125 -6.03125 C 11.085938 -5.226562 12.492188 -4.828125 14.171875 -4.828125 C 15.328125 -4.828125 16.351562 -5 17.25 -5.34375 C 18.144531 -5.695312 18.976562 -6.242188 19.75 -6.984375 L 23.1875 -3.265625 C 21.09375 -0.867188 18.035156 0.328125 14.015625 0.328125 C 11.503906 0.328125 9.285156 -0.160156 7.359375 -1.140625 C 5.429688 -2.117188 3.941406 -3.472656 2.890625 -5.203125 C 1.847656 -6.941406 1.328125 -8.914062 1.328125 -11.125 C 1.328125 -13.289062 1.84375 -15.25 2.875 -17 C 3.90625 -18.75 5.320312 -20.113281 7.125 -21.09375 C 8.9375 -22.070312 10.957031 -22.5625 13.1875 -22.5625 C 15.363281 -22.5625 17.332031 -22.09375 19.09375 -21.15625 C 20.851562 -20.21875 22.234375 -18.875 23.234375 -17.125 C 24.242188 -15.375 24.75 -13.34375 24.75 -11.03125 Z M 13.21875 -17.6875 C 11.757812 -17.6875 10.535156 -17.269531 9.546875 -16.4375 C 8.554688 -15.613281 7.953125 -14.488281 7.734375 -13.0625 L 18.6875 -13.0625 C 18.457031 -14.46875 17.847656 -15.585938 16.859375 -16.421875 C 15.867188 -17.265625 14.65625 -17.6875 13.21875 -17.6875 Z M 13.21875 -17.6875 "/></g></g></g><g fill="#000000" fill-opacity="1"><g transform="translate(344.598986, 76.358322)"><g><path d="M 2.96875 -22.234375 L 9.421875 -22.234375 L 9.421875 0 L 2.96875 0 Z M 6.1875 -25.328125 C 5.007812 -25.328125 4.046875 -25.671875 3.296875 -26.359375 C 2.554688 -27.054688 2.1875 -27.914062 2.1875 -28.9375 C 2.1875 -29.945312 2.554688 -30.796875 3.296875 -31.484375 C 4.046875 -32.179688 5.007812 -32.53125 6.1875 -32.53125 C 7.375 -32.53125 8.335938 -32.195312 9.078125 -31.53125 C 9.828125 -30.875 10.203125 -30.046875 10.203125 -29.046875 C 10.203125 -27.972656 9.828125 -27.082031 9.078125 -26.375 C 8.335938 -25.675781 7.375 -25.328125 6.1875 -25.328125 Z M 6.1875 -25.328125 "/></g></g></g><g fill="#000000" fill-opacity="1"><g transform="translate(352.90611, 76.358322)"><g><path d="M 10.453125 0.328125 C 8.609375 0.328125 6.800781 0.101562 5.03125 -0.34375 C 3.269531 -0.800781 1.867188 -1.375 0.828125 -2.0625 L 2.96875 -6.6875 C 3.96875 -6.0625 5.164062 -5.546875 6.5625 -5.140625 C 7.96875 -4.742188 9.347656 -4.546875 10.703125 -4.546875 C 13.429688 -4.546875 14.796875 -5.222656 14.796875 -6.578125 C 14.796875 -7.203125 14.421875 -7.648438 13.671875 -7.921875 C 12.929688 -8.203125 11.789062 -8.441406 10.25 -8.640625 C 8.425781 -8.910156 6.921875 -9.222656 5.734375 -9.578125 C 4.554688 -9.941406 3.53125 -10.578125 2.65625 -11.484375 C 1.789062 -12.398438 1.359375 -13.695312 1.359375 -15.375 C 1.359375 -16.78125 1.765625 -18.023438 2.578125 -19.109375 C 3.390625 -20.203125 4.570312 -21.050781 6.125 -21.65625 C 7.6875 -22.257812 9.53125 -22.5625 11.65625 -22.5625 C 13.226562 -22.5625 14.789062 -22.390625 16.34375 -22.046875 C 17.90625 -21.703125 19.191406 -21.226562 20.203125 -20.625 L 18.0625 -16.03125 C 16.101562 -17.132812 13.96875 -17.6875 11.65625 -17.6875 C 10.28125 -17.6875 9.242188 -17.492188 8.546875 -17.109375 C 7.859375 -16.722656 7.515625 -16.226562 7.515625 -15.625 C 7.515625 -14.9375 7.882812 -14.453125 8.625 -14.171875 C 9.375 -13.898438 10.5625 -13.640625 12.1875 -13.390625 C 14.007812 -13.085938 15.5 -12.765625 16.65625 -12.421875 C 17.8125 -12.078125 18.816406 -11.445312 19.671875 -10.53125 C 20.523438 -9.625 20.953125 -8.359375 20.953125 -6.734375 C 20.953125 -5.359375 20.535156 -4.132812 19.703125 -3.0625 C 18.878906 -1.988281 17.675781 -1.15625 16.09375 -0.5625 C 14.507812 0.03125 12.628906 0.328125 10.453125 0.328125 Z M 10.453125 0.328125 "/></g></g></g></svg>