<svg xmlns="http://www.w3.org/2000/svg" xmlns:xlink="http://www.w3.org/1999/xlink" width="1080" zoomAndPan="magnify" viewBox="0 0 810 809.999993" height="1080" preserveAspectRatio="xMidYMid meet" version="1.0"><path fill="#713e25" d="M 392.160156 134.046875 C 392.160156 134.046875 398.550781 176.253906 405.199219 191.976562 C 411.84375 207.707031 418.433594 222.507812 418.078125 240.425781 C 417.722656 258.339844 341.121094 275.875 341.121094 275.875 C 341.121094 275.875 315.746094 255.933594 319.074219 248.867188 C 322.410156 241.804688 370.628906 137.824219 392.160156 134.046875 " fill-opacity="1" fill-rule="nonzero"/><path fill="#f2b07c" d="M 121.355469 605.40625 C 121.355469 605.40625 114.03125 591.144531 101.738281 595.746094 C 89.441406 600.339844 86.0625 618.433594 74.386719 625.042969 C 62.703125 631.648438 51.332031 641.695312 41.191406 658.644531 C 31.050781 675.59375 29.511719 683.054688 31.664062 687.652344 C 33.816406 692.246094 33.777344 703.402344 46.109375 702.015625 C 58.441406 700.625 77.765625 689.375 77.765625 689.375 L 121.355469 605.40625 " fill-opacity="1" fill-rule="nonzero"/><path fill="#4a72a1" d="M 58.441406 704.265625 C 58.441406 704.265625 54.558594 675.816406 69.773438 649.375 C 84.988281 622.945312 114.492188 591.601562 134.316406 605.890625 C 154.140625 620.179688 58.441406 704.265625 58.441406 704.265625 " fill-opacity="1" fill-rule="nonzero"/><path fill="#a7ddce" d="M 587.492188 647.65625 C 587.492188 647.65625 596.246094 620.527344 610.539062 615 C 624.835938 609.464844 628.980469 630.992188 637.738281 634.050781 C 646.5 637.117188 671.394531 629.226562 691.679688 631.328125 C 711.960938 633.429688 699.980469 650.792969 675.082031 655.707031 C 650.1875 660.617188 597.171875 684.664062 597.171875 684.664062 L 587.492188 647.65625 " fill-opacity="1" fill-rule="nonzero"/><path fill="#716c5a" d="M 603.621094 651.820312 C 603.621094 651.820312 620.683594 650.441406 631.28125 671.03125 C 641.890625 691.617188 574.125 722.492188 572.273438 722.492188 C 570.429688 722.492188 530.78125 725.335938 531.707031 719.074219 C 532.632812 712.8125 603.621094 651.820312 603.621094 651.820312 " fill-opacity="1" fill-rule="nonzero"/><path fill="#bae7da" d="M 656.179688 662.980469 C 656.179688 662.980469 664.9375 635.847656 679.226562 630.320312 C 693.519531 624.789062 697.671875 646.3125 706.429688 649.375 C 715.191406 652.441406 740.085938 644.546875 760.367188 646.648438 C 780.65625 648.75 768.667969 666.113281 743.773438 671.027344 C 718.878906 675.945312 665.863281 699.984375 665.863281 699.984375 L 656.179688 662.980469 " fill-opacity="1" fill-rule="nonzero"/><path fill="#969384" d="M 648.453125 522.832031 C 648.453125 522.832031 661.257812 551.886719 653.570312 602.753906 C 645.886719 653.605469 517.191406 730.464844 517.191406 730.464844 L 645.886719 653.605469 C 645.886719 653.605469 668.9375 645.660156 672.773438 702.636719 C 608.761719 754.324219 496.964844 809.976562 443.402344 808.648438 C 389.839844 807.328125 376.242188 772.875 389.441406 741.066406 C 346.308594 770.222656 334.789062 775.519531 307.902344 770.222656 C 281.015625 764.917969 273.335938 722.949219 316.863281 665.75 C 360.394531 608.554688 453.792969 517.289062 453.792969 517.289062 L 648.453125 522.832031 " fill-opacity="1" fill-rule="nonzero"/><path fill="#5c81b4" d="M 393.96875 567.828125 C 393.96875 567.828125 391.125 630.78125 361.375 666.726562 C 331.628906 702.671875 202.304688 781.019531 151.589844 781.945312 C 100.878906 782.863281 107.332031 744.152344 120.242188 727.558594 C 79.671875 745.996094 45.558594 722.695312 63.074219 680.886719 C 80.59375 639.074219 205.78125 523.625 233.667969 517.289062 C 261.554688 510.953125 393.96875 567.828125 393.96875 567.828125 " fill-opacity="1" fill-rule="nonzero"/><path fill="#7f7c6c" d="M 389.441406 741.066406 C 389.441406 741.066406 403.191406 696.21875 418.121094 683.320312 C 433.050781 670.410156 449.394531 645.832031 449.394531 645.832031 L 440.972656 619.105469 C 440.972656 619.105469 402.625 666.726562 392.484375 698.683594 C 382.339844 730.632812 380.992188 746.742188 380.992188 746.742188 L 389.441406 741.066406 " fill-opacity="1" fill-rule="nonzero"/><path fill="#f2b07c" d="M 397.707031 671.03125 C 397.707031 671.03125 383.332031 672.253906 380.992188 680.320312 C 378.652344 688.386719 384.183594 690.921875 383.492188 698.753906 C 382.800781 706.59375 375.953125 716.457031 380.992188 718.804688 C 386.027344 721.152344 398.871094 707.667969 403.777344 699.984375 C 408.679688 692.304688 410.917969 686.078125 410.917969 686.078125 L 397.707031 671.03125 " fill-opacity="1" fill-rule="nonzero"/><path fill="#f2b07c" d="M 345.46875 659.800781 C 345.46875 659.800781 331.113281 658.355469 327.328125 665.855469 C 323.539062 673.351562 328.507812 676.859375 326.382812 684.4375 C 324.257812 692.003906 315.710938 700.441406 320.226562 703.675781 C 324.746094 706.914062 339.855469 696.027344 346.09375 689.382812 C 352.332031 682.738281 358.136719 673.40625 358.136719 673.40625 L 345.46875 659.800781 " fill-opacity="1" fill-rule="nonzero"/><path fill="#7bbfb1" d="M 448.105469 257.792969 C 448.105469 257.792969 488.003906 236.738281 554.339844 224.292969 C 620.683594 211.847656 673.878906 229.582031 673.878906 229.582031 L 662.636719 460.257812 L 666.324219 541.070312 C 666.324219 541.070312 644.152344 560.726562 551.050781 560.726562 C 457.941406 560.726562 395.238281 541.070312 395.238281 541.070312 L 393.96875 308.472656 L 448.105469 257.792969 " fill-opacity="1" fill-rule="nonzero"/><path fill="#e94e3b" d="M 246.449219 384.101562 L 240.347656 384.101562 C 240.347656 384.101562 234.574219 344.84375 246.449219 328.808594 C 258.328125 312.78125 295.476562 293.015625 295.476562 293.015625 L 416.234375 281.332031 L 449.394531 396.15625 C 449.394531 396.15625 405.28125 504.0625 401.1875 524.558594 C 397.09375 545.058594 399.101562 574.550781 399.101562 574.550781 C 399.101562 574.550781 353.757812 588.378906 297.515625 574.550781 C 241.269531 560.726562 215.914062 523.398438 215.914062 523.398438 C 215.914062 523.398438 234.355469 508.652344 250.953125 478.695312 C 267.546875 448.734375 264.320312 404.496094 264.320312 404.496094 L 246.449219 384.101562 " fill-opacity="1" fill-rule="nonzero"/><path fill="#4f6e67" d="M 500.617188 528.246094 C 500.617188 528.246094 487.96875 633.25 476.445312 649.375 C 464.921875 665.503906 409.703125 692.996094 409.703125 692.996094 C 409.703125 692.996094 390.851562 681.355469 395.355469 662.980469 C 411.382812 649.210938 428.898438 633.542969 428.898438 629.394531 C 428.898438 625.246094 420.582031 580.699219 420.582031 580.699219 C 420.582031 580.699219 409.714844 635.078125 409.703125 636.921875 C 409.695312 638.765625 364.511719 678.097656 364.511719 678.097656 C 364.511719 678.097656 340.539062 675.328125 335.625 654.128906 C 355.910156 632.3125 368.511719 621.253906 368.511719 614.1875 C 368.511719 607.121094 362.976562 548.226562 384.796875 514.535156 C 406.617188 480.84375 500.617188 528.246094 500.617188 528.246094 " fill-opacity="1" fill-rule="nonzero"/><path fill="#82c632" d="M 434.628906 363.222656 C 434.628906 363.222656 404.746094 363.738281 404.921875 398.414062 C 404.984375 410.917969 402.488281 427.261719 395.410156 465.378906 C 388.335938 503.5 376.902344 521.09375 376.902344 521.09375 C 376.902344 521.09375 401.402344 525.703125 440.972656 528.007812 C 480.535156 530.3125 504.046875 515.5625 504.046875 515.5625 C 504.046875 515.5625 515.191406 442.675781 515.714844 410.488281 C 516.238281 378.289062 510.195312 358.871094 510.195312 358.871094 L 465.726562 349.292969 L 434.628906 363.222656 " fill-opacity="1" fill-rule="nonzero"/><path fill="#f2b07c" d="M 488.851562 203.066406 L 496.582031 244.546875 C 496.582031 244.546875 505.402344 256.390625 526.980469 249.449219 C 548.558594 242.507812 555.109375 225.824219 555.109375 225.824219 L 535.417969 175.203125 L 488.851562 203.066406 " fill-opacity="1" fill-rule="nonzero"/><path fill="#e47c56" d="M 548.769531 209.511719 C 548.769531 209.511719 534.710938 221.285156 515.257812 223.453125 C 495.800781 225.621094 492.25 221.316406 492.25 221.316406 L 491.324219 218.566406 L 537.414062 181.113281 L 548.769531 209.511719 " fill-opacity="1" fill-rule="nonzero"/><path fill="#f2b07c" d="M 396.746094 142.027344 L 409.464844 174.105469 C 409.464844 174.105469 436.035156 238.855469 469.847656 232.132812 C 503.660156 225.40625 534.085938 195.316406 540.035156 179.632812 C 545.972656 163.945312 542.863281 141.261719 542.863281 141.261719 C 542.863281 141.261719 559.53125 139.761719 559.265625 114.375 C 559.015625 88.992188 547.191406 88.1875 547.191406 88.1875 C 547.191406 88.1875 539.292969 87.390625 533 93.285156 C 526.707031 99.175781 526.023438 102.0625 526.023438 102.0625 C 526.023438 102.0625 521.042969 51.234375 504.679688 31.054688 C 488.3125 10.875 432.230469 10.21875 399.695312 48.195312 C 367.160156 86.179688 396.746094 142.027344 396.746094 142.027344 " fill-opacity="1" fill-rule="nonzero"/><path fill="#3d251a" d="M 475.175781 122.480469 C 473.457031 118.144531 474.660156 113.59375 477.867188 112.328125 C 481.074219 111.054688 485.0625 113.542969 486.785156 117.886719 C 488.503906 122.222656 487.296875 126.769531 484.097656 128.039062 C 480.890625 129.3125 476.894531 126.820312 475.175781 122.480469 " fill-opacity="1" fill-rule="nonzero"/><path fill="#3d251a" d="M 414.371094 146.5625 C 412.648438 142.226562 413.855469 137.679688 417.0625 136.40625 C 420.265625 135.140625 424.257812 137.625 425.980469 141.96875 C 427.699219 146.304688 426.492188 150.851562 423.292969 152.125 C 420.085938 153.390625 416.089844 150.90625 414.371094 146.5625 " fill-opacity="1" fill-rule="nonzero"/><path fill="#e47c56" d="M 438.734375 165.949219 C 437.03125 160.34375 441.136719 153.515625 442.230469 148.136719 C 442.921875 144.734375 443.402344 141.257812 443.171875 137.777344 C 442.898438 133.652344 441.230469 130.273438 439.988281 126.433594 C 439.902344 126.164062 440.214844 125.878906 440.453125 126.085938 C 446.730469 131.394531 447.222656 142.609375 446.007812 150.089844 C 445.691406 152.058594 445.230469 154.007812 444.6875 155.929688 C 443.96875 158.503906 441.558594 163.210938 443.59375 165.679688 C 444.957031 167.34375 448.847656 167.257812 450.730469 167.070312 C 453.4375 166.800781 455.085938 165.53125 457.144531 163.914062 C 457.757812 163.433594 458.519531 163.898438 458.664062 164.574219 C 459.679688 169.433594 453.757812 171.582031 449.972656 171.679688 C 445.34375 171.792969 440.261719 170.980469 438.734375 165.949219 " fill-opacity="1" fill-rule="nonzero"/><path fill="#b3683f" d="M 452.730469 99.035156 C 457.527344 93.695312 468.609375 90.867188 475.203125 89.832031 C 482.023438 88.757812 488.78125 89.765625 492.648438 93.871094 C 493.296875 93.859375 493.859375 94.148438 493.949219 94.839844 L 494.089844 95.925781 C 494.144531 96.375 493.949219 96.800781 493.644531 97.15625 C 493.75 98.488281 492.589844 99.910156 490.695312 100.152344 C 479.976562 101.476562 469.878906 104.394531 459.273438 107.109375 C 452.800781 108.761719 447.578125 104.773438 452.730469 99.035156 " fill-opacity="1" fill-rule="nonzero"/><path fill="#b3683f" d="M 419.035156 121.925781 C 412.296875 126.464844 405.703125 130.503906 399.675781 136.277344 C 398.609375 137.296875 397.25 136.84375 396.570312 135.65625 C 396.21875 135.554688 395.890625 135.320312 395.671875 134.914062 L 395.136719 133.902344 C 394.804688 133.273438 394.921875 132.660156 395.25 132.257812 C 394.890625 126.320312 397.667969 121.128906 401.628906 117.644531 C 405.460938 114.277344 412.492188 109.53125 417.808594 110.933594 C 423.515625 112.445312 423.132812 119.152344 419.035156 121.925781 " fill-opacity="1" fill-rule="nonzero"/><path fill="#b3683f" d="M 521.660156 67.15625 C 522.519531 85.558594 519.519531 98.027344 528.957031 116.054688 C 528.957031 116.054688 518.480469 117.328125 517.8125 116.289062 C 517.128906 115.25 510.574219 92.753906 512.183594 82.96875 C 513.800781 73.183594 513.417969 70.582031 512.683594 62.777344 C 511.9375 54.96875 506.144531 47.597656 506.144531 47.597656 C 506.144531 47.597656 520.800781 48.753906 521.660156 67.15625 " fill-opacity="1" fill-rule="nonzero"/><path fill="#b3683f" d="M 360.636719 101.6875 C 350.492188 71.46875 354.023438 54.652344 357.6875 51.363281 C 361.355469 48.085938 388.902344 31.160156 413.300781 24.113281 C 437.703125 17.0625 445.152344 15.417969 445.152344 15.417969 L 422.308594 15.839844 C 422.308594 15.839844 447.144531 -0.0078125 479.191406 0.367188 C 490.804688 0.503906 499.636719 1.359375 506.296875 2.507812 C 506.757812 2.648438 526.070312 8.734375 519.445312 19.921875 C 512.753906 31.25 492.382812 39.871094 492.382812 39.871094 C 492.382812 39.871094 503.121094 55.574219 479.234375 75.875 C 471.113281 81.851562 460.945312 87.839844 448.371094 92.816406 C 405.890625 109.648438 388.191406 96.003906 388.191406 96.003906 C 388.191406 96.003906 394.753906 104.648438 395.265625 113.851562 C 395.777344 123.0625 391.648438 129.140625 391.648438 129.140625 L 396.753906 142.011719 C 396.753906 142.011719 370.785156 131.914062 360.636719 101.6875 " fill-opacity="1" fill-rule="nonzero"/><path fill="#9a522d" d="M 492.386719 39.871094 C 492.386719 39.871094 512.742188 31.242188 519.445312 19.921875 C 526.066406 8.734375 506.757812 2.648438 506.296875 2.507812 C 518.011719 4.515625 522.984375 7.417969 524.394531 8.863281 C 526.601562 11.128906 534.183594 23.023438 540.429688 45.378906 C 546.671875 67.734375 547.195312 88.179688 547.195312 88.179688 C 547.195312 88.179688 534.898438 94.097656 530.722656 100.714844 C 526.550781 107.335938 528.957031 116.050781 528.957031 116.050781 C 519.527344 98.019531 522.519531 85.550781 521.660156 67.148438 C 520.804688 48.75 506.140625 47.589844 506.140625 47.589844 C 506.140625 47.589844 498.550781 61.667969 479.234375 75.875 C 503.113281 55.570312 492.386719 39.871094 492.386719 39.871094 " fill-opacity="1" fill-rule="nonzero"/><path fill="#c4815b" d="M 391.792969 82.398438 C 388.703125 82.398438 385.863281 82.261719 383.265625 82.007812 C 378.167969 73.308594 370.261719 64.6875 356.675781 58.359375 C 357.085938 56.1875 357.84375 54.488281 358.519531 53.671875 C 362.300781 49.121094 391.980469 34.328125 391.980469 34.328125 C 391.980469 34.328125 378.113281 50.171875 403.449219 58.320312 C 406.914062 59.433594 411.070312 59.914062 415.65625 59.914062 C 444.589844 59.910156 490.785156 40.789062 490.785156 40.789062 L 492.222656 44.414062 C 492.222656 44.414062 478.464844 71.117188 413.476562 80.636719 C 405.117188 81.859375 397.949219 82.398438 391.792969 82.398438 " fill-opacity="1" fill-rule="nonzero"/><path fill="#e47c56" d="M 445.800781 191.53125 C 445.800781 191.53125 459.851562 195.355469 471.859375 186.699219 C 483.855469 178.042969 488.085938 172.007812 489.691406 170.796875 C 491.308594 169.589844 493.320312 170.949219 489.691406 175.203125 C 486.070312 179.453125 477.027344 188.519531 468.761719 192.371094 C 460.5 196.226562 449.625 195.21875 445.800781 193.679688 C 441.972656 192.132812 443.761719 191.125 445.800781 191.53125 " fill-opacity="1" fill-rule="nonzero"/><path fill="#e47c56" d="M 549.875 98.457031 C 549.875 98.457031 540.34375 98.84375 539.238281 107.480469 C 538.125 116.125 542.078125 131.632812 547.195312 128.753906 C 552.3125 125.871094 552.976562 116.125 551.648438 112.800781 C 550.316406 109.480469 543.445312 113.777344 543.445312 113.777344 C 543.445312 113.777344 540.128906 102.058594 549.875 98.457031 " fill-opacity="1" fill-rule="nonzero"/><path fill="#f2b07c" d="M 548.71875 260.339844 C 548.71875 260.339844 548.109375 257.851562 547.886719 257.347656 C 547.664062 256.851562 544.769531 252.457031 543.773438 249.296875 C 542.78125 246.140625 543.015625 241.242188 544.113281 240.640625 C 545.207031 240.035156 547.527344 241.132812 547.832031 243.191406 C 548.144531 245.25 549.941406 248.695312 551.363281 248.964844 C 552.78125 249.242188 553.410156 248.042969 554.039062 245.132812 C 554.679688 242.210938 557.34375 231.910156 558.554688 230.492188 C 559.777344 229.085938 563.152344 229.449219 562.882812 232.507812 C 562.609375 235.5625 560.683594 244.019531 560.910156 245.296875 C 561.132812 246.578125 563 246.054688 563.714844 244.78125 C 564.4375 243.503906 569.824219 234.480469 570.496094 233.328125 C 571.164062 232.171875 573.902344 232.34375 574.839844 234.066406 C 575.78125 235.789062 572.722656 241.375 571.648438 243.28125 C 570.574219 245.199219 569.351562 248.492188 569.90625 248.761719 C 570.472656 249.035156 580.789062 240.535156 581.558594 240.609375 C 582.332031 240.6875 585.4375 242.5625 581.785156 246.101562 C 578.136719 249.652344 574.664062 252.023438 575.113281 252.855469 C 575.5625 253.699219 584.613281 250.25 585.738281 250.714844 C 586.863281 251.175781 588.613281 253.800781 584.746094 255.910156 C 580.878906 258.007812 576.835938 258.632812 576.066406 259.328125 C 575.300781 260.03125 572.964844 263.476562 568.164062 266.105469 C 563.371094 268.734375 561.242188 268.796875 560.304688 269.65625 C 559.359375 270.507812 558.664062 271.292969 558.664062 271.292969 L 547.832031 261.765625 L 548.71875 260.339844 " fill-opacity="1" fill-rule="nonzero"/><path fill="#f2b07c" d="M 489.410156 506.761719 C 489.410156 506.761719 453.449219 494.164062 445.148438 495.089844 C 436.851562 496.007812 414.421875 503.074219 413.800781 506.453125 C 413.191406 509.835938 419.332031 509.222656 419.332031 509.222656 C 419.332031 509.222656 407.539062 511.675781 410.054688 515.058594 C 412.578125 518.4375 417.183594 518.4375 417.183594 518.4375 C 417.183594 518.4375 407.847656 520.28125 410.054688 523.355469 C 412.265625 526.425781 419.332031 526.734375 419.332031 526.734375 L 438.699219 525.199219 C 438.699219 525.199219 415.339844 530.097656 417.183594 531.796875 C 419.027344 533.492188 423.699219 533.492188 434.121094 532.875 C 444.539062 532.265625 481.113281 537.179688 491.097656 530.421875 C 501.09375 523.660156 489.410156 506.761719 489.410156 506.761719 " fill-opacity="1" fill-rule="nonzero"/><path fill="#713e25" d="M 221.796875 72.074219 C 221.796875 72.074219 192.1875 109.355469 218.6875 187.785156 C 245.183594 266.210938 319.074219 248.867188 319.074219 248.867188 L 366.730469 221.617188 C 366.730469 221.617188 410.078125 160.820312 383.855469 95.601562 C 313.117188 65.027344 221.796875 72.074219 221.796875 72.074219 " fill-opacity="1" fill-rule="nonzero"/><path fill="#f2b07c" d="M 334.691406 240.96875 L 342.941406 284.085938 C 342.941406 284.085938 345.417969 298.707031 326.464844 302.179688 C 307.511719 305.644531 295.476562 293.015625 295.476562 293.015625 L 288.238281 236.359375 L 334.691406 240.96875 " fill-opacity="1" fill-rule="nonzero"/><path fill="#e98850" d="M 305.195312 276.21875 C 298.105469 276.21875 293.144531 274.757812 293.144531 274.757812 L 289.417969 243.738281 C 299.890625 250.667969 317.117188 257.785156 337.910156 257.792969 C 337.945312 258.003906 339.050781 265.472656 323.941406 272.339844 C 317.296875 275.367188 310.621094 276.21875 305.195312 276.21875 " fill-opacity="1" fill-rule="nonzero"/><path fill="#f2b07c" d="M 383.375 141.925781 L 384.351562 147.523438 C 388.171875 169.472656 388.238281 191.929688 384.425781 213.882812 C 381.230469 232.296875 368.675781 252.867188 360.867188 254.875 C 327.136719 263.519531 298.695312 251.140625 285.824219 241.167969 C 272.957031 231.203125 262.066406 215.332031 262.066406 215.332031 C 262.066406 215.332031 247.515625 222.527344 234.859375 201.394531 C 222.199219 180.257812 231.574219 173.597656 231.574219 173.597656 C 231.574219 173.597656 237.710938 168.941406 245.902344 170.628906 C 254.097656 172.3125 256.128906 174.355469 256.128906 174.355469 C 256.128906 174.355469 234.480469 129.769531 237.792969 104.773438 C 241.105469 79.78125 287.183594 50.824219 333.363281 65.769531 C 379.546875 80.710938 383.375 141.925781 383.375 141.925781 " fill-opacity="1" fill-rule="nonzero"/><path fill="#e98850" d="M 251.210938 204.867188 C 248.28125 204.867188 244.863281 200.976562 245.050781 195.316406 C 245.234375 189.832031 247.53125 189.6875 247.765625 189.6875 C 247.777344 189.6875 247.785156 189.6875 247.785156 189.6875 C 247.785156 189.6875 243.449219 182.953125 239.578125 182.953125 C 239.175781 182.953125 238.777344 183.023438 238.390625 183.183594 C 234.28125 184.894531 237.21875 193.636719 237.21875 193.636719 L 236.371094 193.589844 C 236.371094 193.589844 232.59375 183.597656 235.117188 180.878906 C 235.800781 180.148438 237.152344 179.71875 238.863281 179.71875 C 243.480469 179.71875 250.691406 182.863281 254.238281 191.675781 C 259.09375 203.761719 254.351562 204.703125 251.382812 204.859375 C 251.328125 204.867188 251.269531 204.867188 251.210938 204.867188 " fill-opacity="1" fill-rule="nonzero"/><path fill="#e98850" d="M 348.867188 197.140625 C 346.722656 197.140625 344.757812 196.324219 343.933594 194.011719 C 343.71875 193.410156 344.0625 192.691406 344.742188 192.691406 C 344.78125 192.691406 344.820312 192.699219 344.855469 192.699219 C 345.921875 192.820312 346.894531 192.929688 347.839844 192.929688 C 349.136719 192.929688 350.390625 192.726562 351.761719 192.058594 C 353.414062 191.261719 356.671875 189.359375 356.964844 187.292969 C 357.394531 184.21875 353.019531 181.542969 351.109375 179.777344 C 349.691406 178.460938 348.320312 177.082031 347.058594 175.617188 C 342.261719 170.039062 336.980469 160.503906 339.484375 152.933594 C 339.527344 152.800781 339.628906 152.746094 339.734375 152.746094 C 339.871094 152.746094 340.011719 152.839844 340.046875 152.980469 C 340.96875 156.796875 341.304688 160.433594 343.164062 163.980469 C 344.738281 166.984375 346.898438 169.613281 349.199219 172.085938 C 352.828125 175.980469 359.6875 179.554688 361.121094 185.054688 C 362.410156 189.996094 358.617188 193.238281 354.722656 195.488281 C 353.164062 196.386719 350.929688 197.140625 348.867188 197.140625 " fill-opacity="1" fill-rule="nonzero"/><path fill="#804c2c" d="M 299.503906 141.90625 C 302.671875 140.554688 306.285156 139.320312 309.78125 139.753906 C 311.28125 139.949219 315.429688 141.574219 313.753906 144.09375 C 312.410156 146.113281 310.429688 145.753906 308.316406 146.085938 C 305.695312 146.5 303.132812 147.277344 300.664062 148.257812 C 298.601562 149.070312 296.578125 150.078125 294.738281 151.367188 C 292.914062 152.648438 291.617188 154.976562 289.582031 155.757812 C 288.648438 156.117188 287.460938 155.652344 287.292969 154.449219 C 286.410156 148.234375 295.242188 143.726562 299.503906 141.90625 " fill-opacity="1" fill-rule="nonzero"/><path fill="#804c2c" d="M 362.378906 130.96875 C 359.285156 130.703125 355.851562 130.691406 353.054688 132.226562 C 351.859375 132.890625 348.894531 135.753906 351.109375 137.597656 C 352.882812 139.078125 354.433594 138.101562 356.316406 137.734375 C 358.648438 137.285156 361.054688 137.203125 363.4375 137.332031 C 365.429688 137.4375 367.453125 137.746094 369.410156 138.375 C 371.355469 139 373.191406 140.789062 375.148438 140.867188 C 376.046875 140.910156 376.898438 140.097656 376.65625 138.898438 C 375.40625 132.75 366.539062 131.324219 362.378906 130.96875 " fill-opacity="1" fill-rule="nonzero"/><path fill="#804c2c" d="M 271.773438 105.253906 C 271.773438 105.253906 282.789062 121.441406 278.238281 142.378906 C 273.683594 163.320312 256.128906 174.355469 256.128906 174.355469 C 256.128906 174.355469 246.097656 170.210938 240.433594 171.027344 C 234.773438 171.839844 232.917969 172.75 232.917969 172.75 C 232.917969 172.75 219.09375 120.570312 216.109375 103.410156 C 213.121094 86.257812 221.796875 72.074219 221.796875 72.074219 C 221.796875 72.074219 224.457031 60.851562 229.167969 58.109375 C 233.878906 55.371094 237.109375 54.617188 237.109375 54.617188 C 237.109375 54.617188 229.03125 60.628906 228.210938 63.65625 C 227.390625 66.679688 227.8125 69.101562 227.8125 69.101562 C 227.8125 69.101562 257.460938 45.117188 315.003906 48.941406 C 372.550781 52.757812 384.199219 79.929688 390.558594 98.808594 C 396.917969 117.675781 389.398438 123.042969 389.398438 123.042969 C 389.398438 123.042969 347.152344 130.558594 314.0625 123 C 280.972656 115.4375 271.773438 105.253906 271.773438 105.253906 " fill-opacity="1" fill-rule="nonzero"/><path fill="#926749" d="M 274.332031 95.625 C 268.9375 95.625 265.167969 95.457031 263.835938 95.175781 C 257.875 93.914062 246.433594 87.578125 246.433594 87.578125 C 246.433594 87.578125 336.394531 81.402344 342.253906 68.898438 C 348.121094 56.398438 325.070312 52.648438 325.070312 52.648438 C 325.070312 52.648438 342.3125 54.394531 352.148438 57.273438 C 361.984375 60.15625 386.324219 77.882812 355.460938 86.695312 C 331.496094 93.542969 293.085938 95.625 274.332031 95.625 " fill-opacity="1" fill-rule="nonzero"/><path fill="#e76050" d="M 365.59375 212.394531 C 365.59375 212.394531 368.769531 225.046875 352.589844 228.199219 C 336.410156 231.351562 320.734375 214.074219 320.734375 214.074219 L 349.984375 216.152344 L 365.59375 212.394531 " fill-opacity="1" fill-rule="nonzero"/><path fill="#e14543" d="M 366.683594 210.605469 C 366.683594 210.605469 361.828125 218.65625 345.539062 219.714844 C 329.246094 220.777344 320.734375 214.074219 320.734375 214.074219 C 320.734375 214.074219 332.863281 215.742188 357.304688 206.773438 C 365.46875 203.773438 366.683594 210.605469 366.683594 210.605469 " fill-opacity="1" fill-rule="nonzero"/><path fill="#4c2615" d="M 318.992188 170.296875 C 318.992188 170.296875 318.550781 178.519531 307.96875 179.589844 C 297.382812 180.652344 295 173.1875 294.027344 173.15625 C 293.058594 173.125 285.976562 174.109375 285.976562 174.109375 L 293.765625 176.277344 C 293.765625 176.277344 297.101562 184.730469 309.355469 183.179688 C 323.183594 181.433594 321.382812 169.171875 318.992188 170.296875 " fill-opacity="1" fill-rule="nonzero"/><path fill="#4c2615" d="M 358.550781 167.894531 C 358.550781 167.894531 361.453125 174.433594 370.054688 171.941406 C 378.660156 169.445312 378.195312 162.636719 378.945312 162.300781 C 379.695312 161.964844 385.535156 160.515625 385.535156 160.515625 L 380.128906 164.75 C 380.128906 164.75 380.148438 172.667969 370.089844 175.296875 C 358.738281 178.261719 356.335938 167.746094 358.550781 167.894531 " fill-opacity="1" fill-rule="nonzero"/><path fill="#f2b07c" d="M 479.6875 284.8125 C 479.6875 284.8125 483.109375 290.980469 486.550781 294.457031 C 489.992188 297.933594 501.03125 303.113281 500.609375 319.105469 C 500.183594 335.09375 487.632812 354.285156 463.929688 365.785156 C 440.234375 377.28125 422.011719 370.675781 414.527344 367.414062 C 407.046875 364.144531 403.289062 361.699219 403.289062 361.699219 C 403.289062 361.699219 402.679688 367.769531 397.832031 369.5625 C 392.980469 371.355469 382.148438 371.886719 373.925781 362.5 C 365.703125 353.117188 371.71875 347.785156 373.191406 345.601562 C 374.664062 343.410156 376.167969 342.851562 376.167969 342.851562 C 376.167969 342.851562 343.929688 331.074219 340.738281 295.710938 C 337.554688 260.351562 375.011719 227.265625 416.375 228.0625 C 457.738281 228.855469 469.136719 255.585938 471.546875 263.460938 C 473.953125 271.34375 477.359375 280.996094 479.6875 284.8125 " fill-opacity="1" fill-rule="nonzero"/><path fill="#e98850" d="M 451.589844 317.785156 C 451.414062 317.785156 451.210938 317.761719 450.957031 317.707031 C 449.40625 317.378906 448.472656 315.175781 450.796875 311.5625 C 452.613281 308.734375 456.953125 306.355469 459.875 306.355469 C 460.695312 306.355469 461.394531 306.542969 461.90625 306.949219 C 464.257812 308.816406 463.914062 308.949219 463.722656 309.632812 C 463.675781 309.800781 463.40625 309.941406 463.078125 309.941406 C 462.691406 309.941406 462.230469 309.753906 461.921875 309.207031 C 461.703125 308.804688 461.28125 308.496094 460.554688 308.496094 C 459.417969 308.496094 457.535156 309.242188 454.488281 311.527344 C 449.242188 315.457031 452.382812 317.1875 452.382812 317.1875 C 452.382812 317.1875 452.472656 317.785156 451.589844 317.785156 " fill-opacity="1" fill-rule="nonzero"/><path fill="#e98850" d="M 402.746094 319.042969 C 402.25 319.042969 399.375 313.585938 399.835938 309.242188 C 400.367188 304.25 405.59375 298.972656 407.292969 298.675781 C 407.398438 298.660156 407.507812 298.644531 407.609375 298.644531 C 409.105469 298.644531 409.941406 300.539062 409.648438 301.179688 C 409.328125 301.871094 405.414062 303.761719 403.125 307.078125 C 400.832031 310.394531 402.796875 318.648438 402.796875 318.648438 C 402.84375 318.921875 402.824219 319.042969 402.746094 319.042969 " fill-opacity="1" fill-rule="nonzero"/><path fill="#e98850" d="M 468.175781 273.335938 C 468.148438 273.335938 468.105469 273.3125 468.050781 273.253906 C 468.050781 273.253906 465.246094 269.699219 461.070312 269.699219 C 460.769531 269.699219 460.464844 269.714844 460.152344 269.757812 C 455.472656 270.347656 454.46875 272.789062 453.269531 273.136719 C 453.171875 273.167969 453.070312 273.179688 452.96875 273.179688 C 451.828125 273.179688 450.542969 271.5 451.011719 270.753906 C 451.433594 270.09375 455.425781 267.332031 459.703125 267.332031 C 460.613281 267.332031 461.546875 267.464844 462.457031 267.765625 C 467.214844 269.34375 468.558594 273.335938 468.175781 273.335938 " fill-opacity="1" fill-rule="nonzero"/><path fill="#f48c6c" d="M 422.984375 342.898438 C 421.609375 342.898438 420.636719 342.335938 420.480469 340.882812 C 420.054688 336.839844 429.519531 331.433594 429.519531 331.433594 C 430.742188 330.667969 433.910156 328.808594 436.183594 328.808594 C 437.199219 328.808594 438.039062 329.183594 438.449219 330.183594 C 439.777344 333.429688 436.015625 336.554688 431.867188 339.316406 C 429.199219 341.09375 425.445312 342.898438 422.984375 342.898438 " fill-opacity="1" fill-rule="nonzero"/><path fill="#f48c6c" d="M 473.84375 307.648438 C 472.535156 307.648438 471.550781 307.058594 471.316406 305.515625 C 470.710938 301.539062 478.355469 296.839844 478.355469 296.839844 C 479.296875 296.199219 481.6875 294.683594 483.574219 294.683594 C 484.527344 294.683594 485.359375 295.074219 485.800781 296.175781 C 487.121094 299.421875 484.144531 302.238281 480.816406 304.6875 C 478.777344 306.179688 475.90625 307.648438 473.84375 307.648438 " fill-opacity="1" fill-rule="nonzero"/><path fill="#322421" d="M 433.8125 319.25 C 433.8125 319.25 426.746094 319.671875 423.128906 323.578125 C 419.507812 327.480469 416.113281 335.433594 416.113281 335.433594 L 417.179688 331.179688 L 414.527344 333.507812 L 417.40625 329.863281 L 415.71875 330.527344 L 417.675781 328.484375 C 417.675781 328.484375 418.21875 323.09375 422.996094 318.648438 C 427.773438 314.214844 433.8125 319.25 433.8125 319.25 " fill-opacity="1" fill-rule="nonzero"/><path fill="#322421" d="M 461.46875 299.597656 C 461.46875 299.597656 464.042969 293.679688 467.785156 292.414062 C 471.527344 291.140625 477.84375 291.988281 477.84375 291.988281 L 474.710938 290.882812 L 477.101562 289.707031 L 473.773438 290.460938 L 474.757812 289.3125 L 472.78125 290.035156 C 472.78125 290.035156 469.0625 287.941406 464.601562 289.960938 C 460.136719 291.984375 461.46875 299.597656 461.46875 299.597656 " fill-opacity="1" fill-rule="nonzero"/><path fill="#e98850" d="M 392.246094 363.738281 C 391.523438 363.738281 390.671875 363.582031 389.683594 363.222656 C 383.582031 361 382.519531 358.65625 382.046875 356.730469 C 381.574219 354.804688 381.851562 354.109375 381.851562 354.109375 C 381.851562 354.109375 379.363281 354.214844 379 357.054688 C 378.636719 359.902344 380.066406 361.847656 380.066406 361.847656 C 380.066406 361.847656 375.761719 359.320312 377.742188 354.203125 C 378.4375 352.414062 380.238281 351.710938 382.410156 351.710938 C 386.449219 351.710938 391.78125 354.132812 393.710938 356.460938 C 396.203125 359.460938 395.976562 363.738281 392.246094 363.738281 " fill-opacity="1" fill-rule="nonzero"/><path fill="#b3683f" d="M 443.839844 236.164062 C 443.839844 236.164062 451.003906 254.195312 434.730469 272.6875 C 418.457031 291.179688 405.664062 293.667969 405.664062 293.667969 C 405.664062 293.667969 418.820312 283.707031 423.597656 273.640625 C 428.363281 263.578125 428.515625 258.859375 428.515625 258.859375 C 428.515625 258.859375 426.917969 270.242188 416.234375 281.332031 C 405.550781 292.425781 399.050781 297.988281 399.050781 297.988281 C 399.050781 297.988281 402.402344 289.707031 405.40625 283.488281 C 408.414062 277.273438 407.707031 270.753906 407.707031 270.753906 C 407.707031 270.753906 402.945312 285.445312 397.214844 297.015625 C 391.484375 308.578125 393.03125 321.070312 393.03125 321.070312 C 393.03125 321.070312 385.578125 317.9375 383.570312 308.503906 C 381.566406 299.074219 381.535156 292.148438 381.535156 292.148438 C 381.535156 292.148438 379.664062 307.402344 384.972656 319.234375 C 390.28125 331.0625 394.492188 333.042969 397.667969 340.195312 C 400.84375 347.355469 401.1875 349.0625 401.1875 349.0625 C 401.1875 349.0625 389.824219 345.847656 384.925781 343.175781 C 380.027344 340.503906 375.527344 336.519531 375.527344 336.519531 C 375.527344 336.519531 381.378906 342.351562 384.390625 343.882812 C 387.402344 345.417969 389.648438 346.261719 389.96875 346.410156 C 390.292969 346.5625 373.191406 345.601562 373.191406 345.601562 C 373.191406 345.601562 346.738281 344.453125 334.960938 314.089844 C 323.1875 283.722656 339.5 269.679688 339.5 269.679688 C 339.5 269.679688 335.972656 270.425781 333.722656 272.25 C 331.46875 274.074219 330.558594 275.4375 330.558594 275.4375 C 330.558594 275.4375 331.800781 272.140625 335.035156 269.835938 C 338.273438 267.53125 340.359375 267.542969 340.359375 267.542969 C 340.359375 267.542969 338.90625 266.480469 338.117188 261.160156 C 337.324219 255.835938 344.003906 248.324219 344.003906 248.324219 C 344.003906 248.324219 340.902344 254.484375 340.914062 257.367188 C 340.925781 260.253906 342.804688 263.167969 342.804688 263.167969 C 342.804688 263.167969 353.640625 237.285156 391.964844 223.351562 C 430.292969 209.414062 459.671875 231.167969 465.90625 242.226562 C 472.140625 253.292969 473.058594 270.09375 473.058594 270.09375 C 473.058594 270.09375 468.21875 255.355469 462.167969 248.679688 C 456.121094 242.003906 451.277344 239.074219 451.277344 239.074219 C 451.277344 239.074219 459.601562 245.449219 463.5625 252 C 467.53125 258.550781 468.75 264.132812 468.75 264.132812 C 468.75 264.132812 462.453125 252.671875 456.0625 246.972656 C 449.664062 241.277344 443.839844 236.164062 443.839844 236.164062 " fill-opacity="1" fill-rule="nonzero"/><path fill="#8e4621" d="M 388.234375 267.039062 C 388.234375 267.039062 377.054688 295.058594 382.742188 312.582031 C 388.429688 330.097656 391.480469 328.003906 396.484375 337.832031 C 401.492188 347.65625 401.1875 349.0625 401.1875 349.0625 C 401.1875 349.0625 393.375 335.210938 388.75 330.25 C 384.128906 325.296875 378.171875 312.589844 377.265625 302.488281 C 376.359375 292.390625 381.222656 281.117188 381.222656 281.117188 C 381.222656 281.117188 375.128906 290.355469 374.453125 300.71875 C 373.78125 311.074219 377.21875 321.148438 377.21875 321.148438 C 377.21875 321.148438 368.558594 307.988281 375.089844 288.765625 C 381.617188 269.535156 388.234375 267.039062 388.234375 267.039062 " fill-opacity="1" fill-rule="nonzero"/><path fill="#8e4621" d="M 411.285156 258.953125 C 411.285156 258.953125 406.542969 276.667969 402.90625 285.582031 C 399.277344 294.492188 395.855469 302.027344 393.96875 308.472656 C 392.089844 314.929688 393.03125 321.070312 393.03125 321.070312 C 393.03125 321.070312 387.203125 316.03125 386.929688 298.375 C 386.65625 280.71875 394.617188 271.503906 394.617188 271.503906 C 394.617188 271.503906 389.292969 282.59375 388.914062 293.242188 C 388.53125 303.886719 390.75 310.425781 390.75 310.425781 C 390.75 310.425781 392.941406 299.132812 394.019531 292.113281 C 395.097656 285.101562 398.269531 280.402344 398.269531 280.402344 C 398.269531 280.402344 395.226562 292.777344 394.902344 295.867188 C 394.574219 298.960938 394.53125 300.484375 394.53125 300.484375 C 394.53125 300.484375 406.085938 264.949219 411.285156 258.953125 " fill-opacity="1" fill-rule="nonzero"/><path fill="#8e4621" d="M 430.425781 238.496094 C 430.425781 238.496094 431.277344 256.683594 425.125 268.730469 C 418.972656 280.773438 404.480469 293.023438 404.480469 293.023438 C 404.480469 293.023438 415.664062 282.492188 422.324219 269.664062 C 428.988281 256.839844 430.425781 238.496094 430.425781 238.496094 " fill-opacity="1" fill-rule="nonzero"/><path fill="#8e4621" d="M 437.234375 229.863281 C 437.234375 229.863281 446.210938 232.644531 445.972656 245.636719 C 445.738281 258.621094 441.355469 267.070312 432.632812 275.984375 C 423.914062 284.90625 417.15625 288.265625 417.15625 288.265625 C 417.15625 288.265625 429.417969 280.417969 435.117188 265.742188 C 440.816406 251.066406 439.648438 244.367188 439.648438 244.367188 C 439.648438 244.367188 442.207031 251.039062 438.429688 261.539062 C 434.648438 272.046875 432.179688 275.039062 432.179688 275.039062 C 432.179688 275.039062 441.277344 265.019531 443.839844 251.09375 C 446.398438 237.160156 437.234375 229.863281 437.234375 229.863281 " fill-opacity="1" fill-rule="nonzero"/><path fill="#8e4621" d="M 445.1875 234.652344 C 445.1875 234.652344 459.070312 243.828125 462.757812 249.359375 C 466.445312 254.882812 471.539062 265.914062 471.539062 265.914062 C 471.539062 265.914062 471.070312 253.820312 464.757812 245.492188 C 458.441406 237.164062 452.722656 234.605469 452.722656 234.605469 C 452.722656 234.605469 459.875 240.113281 463.707031 245.664062 C 467.53125 251.21875 468.351562 256.394531 468.351562 256.394531 C 468.351562 256.394531 466.777344 250.167969 459.828125 243.847656 C 452.871094 237.523438 445.1875 234.652344 445.1875 234.652344 " fill-opacity="1" fill-rule="nonzero"/><path fill="#8e4621" d="M 346.816406 290.25 C 346.816406 290.25 341.402344 304.441406 358.785156 323.644531 C 376.167969 342.851562 392.4375 346.292969 392.4375 346.292969 C 392.4375 346.292969 383.734375 340.890625 374.65625 330.492188 C 365.582031 320.085938 362.675781 306.878906 362.675781 306.878906 C 362.675781 306.878906 362.671875 317.066406 368.160156 325.625 C 373.652344 334.183594 377.921875 337.152344 377.921875 337.152344 C 377.921875 337.152344 365.441406 330.050781 356.734375 316.183594 C 348.03125 302.320312 346.816406 290.25 346.816406 290.25 " fill-opacity="1" fill-rule="nonzero"/><path fill="#8e4621" d="M 344.5 267.117188 C 344.5 267.117188 345.460938 259.082031 349.722656 254.136719 C 353.980469 249.1875 356.242188 247.828125 356.242188 247.828125 C 356.242188 247.828125 350.78125 253.019531 348.527344 258.085938 C 346.269531 263.15625 346.195312 266.089844 346.195312 266.089844 C 346.195312 266.089844 348.421875 262.3125 350.605469 260.179688 C 352.789062 258.050781 354.066406 257.277344 354.066406 257.277344 C 354.066406 257.277344 347.433594 265.460938 346.945312 266.566406 C 346.460938 267.667969 346.460938 267.667969 346.460938 267.667969 C 346.460938 267.667969 343.433594 271.46875 341.121094 275.875 C 338.8125 280.28125 339.746094 289.089844 339.746094 289.089844 C 339.746094 289.089844 336.996094 284.738281 338.675781 279.667969 C 340.351562 274.605469 341.878906 272.152344 341.878906 272.152344 C 341.878906 272.152344 338.867188 272.722656 336.191406 278.625 C 333.515625 284.527344 333.246094 290.011719 333.246094 290.011719 C 333.246094 290.011719 332.335938 283.160156 335.273438 277.675781 C 338.203125 272.203125 342.859375 268.804688 342.859375 268.804688 C 342.859375 268.804688 341.992188 267.945312 340.792969 265.773438 C 339.597656 263.605469 339.007812 259.449219 339.007812 259.449219 C 339.007812 259.449219 341.519531 265.453125 344.5 267.117188 " fill-opacity="1" fill-rule="nonzero"/><path fill="#c0844a" d="M 339.613281 314.671875 C 339.613281 314.671875 333.242188 301.859375 333.074219 291.386719 C 333.058594 290.453125 333.085938 289.5625 333.144531 288.714844 C 333.183594 289.527344 333.246094 290.011719 333.246094 290.011719 C 333.246094 290.011719 333.515625 284.527344 336.191406 278.625 C 336.714844 277.472656 337.253906 276.515625 337.777344 275.738281 C 337.78125 275.730469 337.785156 275.730469 337.785156 275.730469 C 337.785156 275.730469 337.625 277.640625 338.667969 279.691406 C 337.003906 284.75 339.746094 289.089844 339.746094 289.089844 C 339.746094 289.089844 339.335938 285.191406 339.738281 281.285156 C 341.320312 283.105469 344.175781 284.671875 349.300781 284.671875 C 354.40625 284.671875 361.765625 283.117188 372.371094 278.722656 C 375.488281 277.425781 378.515625 276.011719 381.4375 274.519531 C 379.59375 277.554688 377.53125 281.792969 375.464844 287.671875 C 374.890625 286.335938 374.433594 285.265625 374.433594 285.265625 C 374.433594 285.265625 368.710938 300.5 368.386719 300.5 C 368.386719 300.5 368.382812 300.5 368.382812 300.496094 C 368.175781 300.160156 369.761719 289.015625 369.328125 288.042969 C 369.257812 287.890625 369.121094 287.824219 368.933594 287.824219 C 367.945312 287.824219 365.613281 289.679688 365.328125 289.84375 C 364.988281 290.046875 363.601562 294.902344 363.722656 296.371094 C 363.734375 296.53125 363.703125 296.597656 363.636719 296.597656 C 363.089844 296.597656 360.148438 291.75 360.148438 291.75 C 360.148438 291.75 358.523438 297.976562 359.125 302.546875 C 359.226562 303.296875 359.195312 303.613281 359.074219 303.613281 C 358.457031 303.613281 355.4375 295.351562 354.882812 294.007812 C 354.855469 293.945312 354.835938 293.921875 354.820312 293.921875 C 354.605469 293.921875 354.855469 298.035156 354.976562 302.152344 C 355.097656 306.265625 355.085938 310.378906 354.355469 310.378906 C 354.230469 310.378906 354.085938 310.257812 353.914062 310 C 352.125 307.25 348.867188 298.179688 347.617188 294.613281 C 346.980469 291.875 346.816406 290.25 346.816406 290.25 C 346.816406 290.25 345.878906 292.714844 346.035156 296.980469 C 345.386719 299.050781 344.566406 301.179688 343.964844 301.179688 C 343.855469 301.179688 343.75 301.109375 343.65625 300.953125 C 342.566406 299.144531 342.582031 292.8125 342.582031 292.8125 C 342.582031 292.8125 339.570312 300.363281 338.960938 302.320312 C 338.9375 300.597656 337.550781 294.695312 337.550781 294.695312 L 339.613281 314.671875 M 338.859375 302.777344 C 338.828125 302.777344 338.867188 302.609375 338.960938 302.320312 C 338.960938 302.546875 338.9375 302.707031 338.882812 302.765625 C 338.875 302.769531 338.867188 302.777344 338.859375 302.777344 M 377.808594 292.882812 C 377.753906 292.882812 377.273438 291.832031 376.691406 290.511719 C 378.675781 284.976562 381.222656 281.117188 381.222656 281.117188 C 381.222656 281.117188 378.964844 286.351562 377.8125 292.882812 C 377.8125 292.882812 377.808594 292.882812 377.808594 292.882812 M 385.046875 289.023438 L 384.925781 280.917969 C 384.925781 280.917969 384.21875 282.089844 383.253906 283.691406 C 384.308594 278.941406 385.566406 274.753906 386.550781 271.765625 C 414.503906 255.921875 432.082031 233.214844 432.082031 233.214844 L 436.097656 229.582031 L 440.632812 235.285156 C 440.632812 235.285156 437.75 234.601562 436.863281 234.601562 C 435.976562 234.601562 437.746094 238.925781 438.136719 240.851562 C 438.238281 241.332031 438.144531 241.523438 437.9375 241.523438 C 437.328125 241.523438 435.753906 239.800781 435.542969 238.929688 C 435.53125 238.855469 435.511719 238.820312 435.496094 238.820312 C 435.21875 238.820312 434.855469 246.878906 434.550781 249.964844 C 434.484375 250.632812 434.335938 250.902344 434.144531 250.902344 C 433.363281 250.902344 431.8125 246.710938 431.320312 245.898438 C 431.277344 245.828125 431.238281 245.796875 431.207031 245.796875 C 430.75 245.796875 431.042969 251.632812 430.691406 251.996094 C 430.667969 252.019531 430.636719 252.023438 430.597656 252.023438 C 430.445312 252.023438 430.164062 251.816406 429.824219 251.511719 C 430.695312 244.289062 430.425781 238.496094 430.425781 238.496094 C 430.425781 238.496094 430.023438 243.605469 428.664062 250.316406 C 428.019531 249.609375 427.390625 248.890625 427.097656 248.613281 C 427.0625 248.578125 427.03125 248.566406 427.003906 248.566406 C 426.425781 248.566406 426.75 254.507812 427.089844 256.980469 C 427.089844 256.980469 427.089844 256.988281 427.089844 256.988281 C 427.039062 257.195312 426.984375 257.398438 426.925781 257.605469 C 426.4375 257.015625 425.253906 254 424.9375 252.84375 C 424.910156 252.761719 424.875 252.71875 424.835938 252.71875 C 424.042969 252.71875 420.183594 265.007812 420.160156 265.460938 C 420.160156 265.464844 420.160156 265.472656 420.160156 265.472656 C 420.089844 265.472656 418.972656 255.84375 418.972656 255.84375 L 410.457031 272.871094 C 410.457031 272.871094 409.683594 269.722656 408.992188 267.109375 C 410.347656 262.445312 411.285156 258.953125 411.285156 258.953125 C 410.402344 259.964844 409.339844 261.828125 408.1875 264.222656 C 408.105469 263.960938 408.039062 263.785156 408 263.71875 C 407.980469 263.695312 407.964844 263.683594 407.945312 263.683594 C 407.453125 263.683594 405.148438 269.726562 403.640625 273.347656 C 402.074219 277.125 400.855469 278.683594 400.316406 278.851562 C 400.3125 278.859375 400.300781 278.859375 400.292969 278.859375 C 399.765625 278.859375 399.332031 273.886719 398.660156 273.535156 C 398.65625 273.527344 398.644531 273.527344 398.632812 273.527344 C 397.808594 273.527344 391.578125 286.316406 391.414062 287.308594 C 391.410156 287.34375 391.402344 287.359375 391.390625 287.359375 C 391.285156 287.359375 390.980469 285.007812 390.683594 282.421875 C 392.363281 276.207031 394.617188 271.503906 394.617188 271.503906 C 394.617188 271.503906 392.382812 274.09375 390.316406 279.160156 C 390.109375 277.226562 389.953125 275.71875 389.953125 275.71875 L 385.046875 289.023438 " fill-opacity="1" fill-rule="nonzero"/><path fill="#a16825" d="M 377.8125 292.882812 C 378.964844 286.351562 381.222656 281.117188 381.222656 281.117188 C 381.222656 281.117188 378.675781 284.976562 376.691406 290.511719 C 376.296875 289.613281 375.851562 288.578125 375.464844 287.671875 C 377.53125 281.792969 379.59375 277.554688 381.4375 274.519531 C 383.179688 273.628906 384.882812 272.710938 386.550781 271.765625 C 385.566406 274.753906 384.308594 278.941406 383.253906 283.691406 C 381.160156 287.167969 377.84375 292.703125 377.8125 292.878906 C 377.8125 292.882812 377.8125 292.882812 377.8125 292.882812 " fill-opacity="1" fill-rule="nonzero"/><path fill="#a16825" d="M 390.683594 282.421875 C 390.558594 281.320312 390.429688 280.179688 390.316406 279.160156 C 392.382812 274.09375 394.617188 271.503906 394.617188 271.503906 C 394.617188 271.503906 392.363281 276.207031 390.683594 282.421875 M 408.992188 267.109375 C 408.679688 265.914062 408.378906 264.832031 408.1875 264.222656 C 409.339844 261.828125 410.402344 259.964844 411.285156 258.953125 C 411.285156 258.953125 410.347656 262.445312 408.992188 267.109375 " fill-opacity="1" fill-rule="nonzero"/><path fill="#a16825" d="M 427.054688 257.703125 C 427.019531 257.703125 426.980469 257.667969 426.925781 257.605469 C 426.984375 257.398438 427.039062 257.195312 427.089844 256.988281 C 427.164062 257.492188 427.140625 257.703125 427.054688 257.703125 M 429.824219 251.511719 C 429.476562 251.191406 429.070312 250.757812 428.664062 250.316406 C 430.023438 243.605469 430.425781 238.496094 430.425781 238.496094 C 430.425781 238.496094 430.695312 244.289062 429.824219 251.511719 " fill-opacity="1" fill-rule="nonzero"/><path fill="#a16825" d="M 346.035156 296.980469 C 345.878906 292.714844 346.816406 290.25 346.816406 290.25 C 346.816406 290.25 346.980469 291.875 347.617188 294.613281 C 347.300781 293.707031 347.109375 293.152344 347.109375 293.152344 C 347.109375 293.152344 346.648438 295.039062 346.035156 296.980469 " fill-opacity="1" fill-rule="nonzero"/><path fill="#a16825" d="M 333.246094 290.011719 C 333.246094 290.011719 333.183594 289.527344 333.144531 288.714844 C 333.722656 280.226562 337.601562 275.925781 337.777344 275.738281 C 337.253906 276.515625 336.714844 277.472656 336.191406 278.625 C 333.515625 284.527344 333.246094 290.011719 333.246094 290.011719 M 339.746094 289.089844 C 339.746094 289.089844 337.003906 284.75 338.667969 279.691406 C 338.9375 280.222656 339.285156 280.761719 339.738281 281.285156 C 339.335938 285.191406 339.746094 289.089844 339.746094 289.089844 " fill-opacity="1" fill-rule="nonzero"/><path fill="#d6704c" d="M 451.835938 332.285156 C 451.714844 332.285156 451.59375 332.285156 451.480469 332.28125 C 447.359375 332.183594 447.402344 329.816406 449.53125 329.816406 C 449.546875 329.816406 449.558594 329.816406 449.578125 329.816406 C 450.136719 329.828125 450.785156 329.859375 451.535156 329.859375 C 453.695312 329.859375 456.722656 329.613281 460.988281 327.914062 C 464.5 326.507812 466.929688 324.292969 468.296875 322.78125 C 468.464844 322.59375 468.679688 322.511719 468.890625 322.511719 C 469.292969 322.511719 469.683594 322.816406 469.703125 323.292969 C 469.75 324.671875 469.117188 325.980469 468 326.792969 C 467.011719 327.511719 465.675781 328.394531 464.164062 329.132812 C 461.058594 330.65625 455.925781 332.285156 451.835938 332.285156 " fill-opacity="1" fill-rule="nonzero"/><path fill="#f2b07c" d="M 477.316406 360.976562 C 477.316406 360.976562 509.265625 338.214844 527.902344 303.324219 C 546.539062 268.429688 552.214844 250.109375 552.214844 250.109375 L 567.207031 255.03125 C 567.207031 255.03125 557.886719 302.640625 537.628906 342.996094 C 517.363281 383.34375 501.96875 393.433594 501.96875 393.433594 C 501.96875 393.433594 472.914062 395.191406 477.316406 360.976562 " fill-opacity="1" fill-rule="nonzero"/><path fill="#f2b07c" d="M 246.449219 384.101562 C 246.449219 384.101562 253.691406 516.175781 298.632812 529.082031 C 343.574219 541.984375 440.972656 470.089844 440.972656 470.089844 L 437.300781 450.429688 C 437.300781 450.429688 323.289062 489.140625 317.144531 483.609375 C 310.996094 478.074219 298.632812 380.992188 298.632812 380.992188 L 246.449219 384.101562 " fill-opacity="1" fill-rule="nonzero"/><path fill="#f2b07c" d="M 437.300781 450.429688 C 437.300781 450.429688 453.03125 440.289062 466.859375 436.605469 C 480.691406 432.910156 492.675781 428.917969 494.210938 432.605469 C 495.746094 436.292969 472.570312 440.78125 472.570312 440.78125 C 472.570312 440.78125 513.882812 436.058594 515.421875 440.78125 C 516.957031 445.511719 512.039062 447.050781 512.039062 447.050781 C 512.039062 447.050781 514.496094 451.039062 512.039062 452.269531 C 509.578125 453.496094 508.039062 454.421875 508.039062 454.421875 C 508.039062 454.421875 506.8125 458.414062 504.351562 460.257812 C 501.898438 462.101562 475.011719 474.386719 440.972656 470.089844 C 436.125 464.5625 437.300781 450.429688 437.300781 450.429688 " fill-opacity="1" fill-rule="nonzero"/><path fill="#8dcbbf" d="M 623.582031 302.832031 C 623.582031 302.832031 643.734375 408.410156 614.691406 455.808594 C 585.648438 503.210938 485.117188 499.890625 485.117188 499.890625 L 486.78125 538.992188 C 486.78125 538.992188 622.683594 552.0625 671.855469 504.75 C 721.027344 457.433594 716.589844 348.085938 708.601562 275.695312 C 700.609375 203.296875 604.816406 215.460938 623.582031 302.832031 " fill-opacity="1" fill-rule="nonzero"/><path fill="#3c5752" d="M 379.421875 557.808594 C 379.421875 557.808594 394.433594 570.097656 418.121094 573.015625 C 441.8125 575.933594 471.160156 574.707031 471.160156 574.707031 C 471.160156 574.707031 444.117188 581.46875 429.824219 582.847656 C 429.667969 601.128906 428.246094 624.078125 428.246094 624.078125 C 428.246094 624.078125 422.136719 582.542969 421.21875 582.847656 C 420.292969 583.15625 411.53125 626.699219 411.53125 626.699219 C 411.53125 626.699219 404.46875 591.144531 402.320312 585.304688 C 400.164062 579.46875 379.421875 568.558594 379.421875 557.808594 " fill-opacity="1" fill-rule="nonzero"/><path fill="#7f7c6c" d="M 548.160156 710.488281 C 548.160156 710.488281 497.132812 743.691406 477.308594 749.21875 C 503.128906 743.226562 521.101562 733.09375 521.101562 733.09375 L 512.738281 749.21875 C 512.738281 749.21875 528.480469 731.402344 534.320312 725.101562 C 540.15625 718.804688 568.234375 699.984375 568.234375 699.984375 C 568.234375 699.984375 557.085938 703.707031 548.160156 710.488281 " fill-opacity="1" fill-rule="nonzero"/><path fill="#4a72a1" d="M 120.242188 727.558594 C 120.242188 727.558594 241.269531 634.925781 256.023438 624.789062 C 270.773438 614.652344 335.625 600.824219 335.625 600.824219 C 335.625 600.824219 266.625 612.347656 262.9375 609.578125 C 259.25 606.816406 227.933594 570.863281 227.933594 570.863281 C 227.933594 570.863281 247.480469 604.511719 246.449219 610.964844 C 245.421875 617.410156 104.378906 732.777344 104.378906 732.777344 L 120.242188 727.558594 " fill-opacity="1" fill-rule="nonzero"/><path fill="#804c2c" d="M 281.378906 110.71875 C 281.378906 110.71875 282.300781 197.398438 292.902344 238.496094 C 303.507812 279.597656 309.699219 271.058594 304.300781 294.683594 C 298.898438 318.308594 247.722656 304.601562 221.90625 310.535156 C 196.089844 316.464844 171.65625 302.867188 169.351562 269.570312 C 167.046875 236.277344 203.929688 206.546875 202.085938 183.621094 C 200.242188 160.691406 196.179688 85.609375 221.796875 72.074219 C 240.808594 93.867188 281.207031 101.785156 281.378906 110.71875 " fill-opacity="1" fill-rule="nonzero"/><path fill="#d63e30" d="M 298.632812 380.992188 C 298.632812 380.992188 297.511719 342.628906 292.59375 327.398438 C 298.433594 341.042969 302.433594 364.316406 302.738281 363.738281 C 303.046875 363.167969 307.742188 345.042969 307.742188 345.042969 C 307.742188 345.042969 310.742188 380.066406 314.425781 396.660156 C 318.105469 413.25 326.898438 408.949219 343.710938 407.105469 C 360.519531 405.257812 381.109375 409.867188 374.65625 415.089844 C 368.203125 420.3125 339.519531 431.269531 333.113281 431.019531 C 326.710938 430.761719 326.097656 438.445312 327.019531 452.882812 C 327.941406 467.324219 322.292969 473.472656 332.65625 476.542969 C 343.015625 479.609375 368.433594 472.449219 368.433594 472.449219 C 368.433594 472.449219 328.78125 485.761719 317.144531 483.609375 C 311.652344 476.542969 298.632812 380.992188 298.632812 380.992188 " fill-opacity="1" fill-rule="nonzero"/><path fill="#75a72b" d="M 473.058594 361.9375 C 473.058594 361.9375 497.4375 343.65625 507.121094 329.679688 C 522.488281 341.664062 538.777344 351.710938 538.777344 351.710938 C 538.777344 351.710938 520.027344 392.050781 508.65625 403.265625 C 497.285156 414.480469 475.617188 410.050781 469.703125 390.296875 C 463.785156 370.546875 473.058594 361.9375 473.058594 361.9375 " fill-opacity="1" fill-rule="nonzero"/></svg>