<?xml version="1.0" encoding="utf-8"?>
<!-- Uploaded to: SVG Repo, www.svgrepo.com, Generator: SVG Repo Mixer Tools -->
<svg width="800px" height="800px" viewBox="0 -90.93 373.08 373.08" xmlns="http://www.w3.org/2000/svg">
  <g id="City_1" data-name="City 1" transform="translate(-1073.46 -59.318)">
    <g id="Group_44" data-name="Group 44">
      <g id="Group_42" data-name="Group 42">
        <g id="Group_40" data-name="Group 40">
          <rect id="Rectangle_14" data-name="Rectangle 14" width="43.2" height="114.423" transform="translate(1197.702 134.614)" fill="#878787"/>
          <path id="Path_223" data-name="Path 223" d="M1231.9,101.955l43.2-41.141V249.037h-43.2Z" fill="#878787" fill-rule="evenodd"/>
          <path id="Path_224" data-name="Path 224" d="M1267.451,138.961l13.355-16.512,13.372-16.635,13.372,16.635,13.354,16.512V249.037h-53.453Z" fill="#878787" fill-rule="evenodd"/>
          <path id="Path_225" data-name="Path 225" d="M1311.221,187.259h28.8V176.008h23.731v73.028h-52.531Z" fill="#878787" fill-rule="evenodd"/>
          <path id="Path_226" data-name="Path 226" d="M1351.6,149.91h8.1v-10.8h31.171v10.8h8.1v99.127H1351.6Z" fill="#878787" fill-rule="evenodd"/>
          <path id="Path_227" data-name="Path 227" d="M1153.6,174.21h56.373v9h-5.4v65.826H1153.6V183.21h-5.4v-9Z" fill="#878787" fill-rule="evenodd"/>
          <path id="Path_228" data-name="Path 228" d="M1123.452,119.436h6.626V109.412h6.3v-6.75h5.637V65.091h6.075v37.572h5.637v6.75h6.3v10.024h6.626v129.6h-43.2Z" fill="#878787" fill-rule="evenodd"/>
          <path id="Path_229" data-name="Path 229" d="M1073.46,188.626h16.2V178.265h24.3v10.361h16.2v60.411h-56.7Z" fill="#878787" fill-rule="evenodd"/>
          <path id="Path_230" data-name="Path 230" d="M1391.6,206.276l21.376-15.411,21.376,15.411h4.5v7.4H1435.2v35.359h-44.453V213.678H1387.1v-7.4Z" fill="#878787" fill-rule="evenodd"/>
        </g>
        <g id="Group_41" data-name="Group 41">
          <rect id="Rectangle_15" data-name="Rectangle 15" width="9" height="114.423" transform="translate(1231.902 134.614)" fill="#575757"/>
          <path id="Path_231" data-name="Path 231" d="M1275.1,129.5V249.037h-7.651V138.961Z" fill="#575757" fill-rule="evenodd"/>
          <rect id="Rectangle_16" data-name="Rectangle 16" width="9.683" height="61.778" transform="translate(1311.221 187.259)" fill="#575757"/>
          <path id="Path_232" data-name="Path 232" d="M1351.6,176.008h12.15v73.028H1351.6Z" fill="#575757" fill-rule="evenodd"/>
          <path id="Path_233" data-name="Path 233" d="M1398.973,200.962v48.075h-8.222V213.678H1387.1v-7.4h4.5Z" fill="#575757" fill-rule="evenodd"/>
          <path id="Path_234" data-name="Path 234" d="M1197.7,174.21h12.273v9h-5.4v65.826H1197.7Z" fill="#575757" fill-rule="evenodd"/>
          <path id="Path_235" data-name="Path 235" d="M1166.652,174.21v74.826H1153.6V183.21h-5.4v-9h18.45Z" fill="#575757" fill-rule="evenodd"/>
          <rect id="Rectangle_17" data-name="Rectangle 17" width="6.706" height="60.411" transform="translate(1123.452 188.626)" fill="#575757"/>
        </g>
      </g>
      <g id="Group_43" data-name="Group 43">
        <path id="Path_236" data-name="Path 236" d="M1203.889,133.114h43.2a1.5,1.5,0,0,1,1.5,1.5V249.037a1.5,1.5,0,0,1-1.5,1.5h-43.2a1.5,1.5,0,0,1-1.5-1.5V134.614a1.5,1.5,0,0,1,1.5-1.5Zm41.7,3h-40.2V247.537h40.2Z" fill="#1a1818" fill-rule="evenodd"/>
        <path id="Path_237" data-name="Path 237" d="M1237.13,100.8l43.127-41.071a1.5,1.5,0,0,1,2.528,1.084h0V249.037a1.5,1.5,0,0,1-1.5,1.5h-43.2a1.5,1.5,0,0,1-1.5-1.5V101.955a1.5,1.5,0,0,1,.541-1.154Zm42.659-36.492-40.2,38.284V247.537h40.2Z" fill="#1a1818" fill-rule="evenodd"/>
        <path id="Path_238" data-name="Path 238" d="M1272.543,137.936l13.285-16.424,13.371-16.635a1.5,1.5,0,0,1,2.1-.229,1.472,1.472,0,0,1,.25.255l13.351,16.609,13.354,16.511a1.494,1.494,0,0,1,.33.938h0V249.037a1.5,1.5,0,0,1-1.5,1.5h-53.452a1.5,1.5,0,0,1-1.5-1.5V138.961a1.5,1.5,0,0,1,.4-1.025Zm15.616-14.549-13.02,16.1V247.537h50.452V139.485l-13.02-16.1L1300.365,108.2Z" fill="#1a1818" fill-rule="evenodd"/>
        <path id="Path_239" data-name="Path 239" d="M1317.408,185.759h27.3v-9.751a1.5,1.5,0,0,1,1.5-1.5h23.731a1.5,1.5,0,0,1,1.5,1.5v73.029a1.5,1.5,0,0,1-1.5,1.5h-52.531a1.5,1.5,0,0,1-1.5-1.5V187.259a1.5,1.5,0,0,1,1.5-1.5Zm28.8,3h-27.3v58.778h49.531V177.509h-20.731v9.75A1.5,1.5,0,0,1,1346.208,188.759Z" fill="#1a1818" fill-rule="evenodd"/>
        <path id="Path_240" data-name="Path 240" d="M1357.79,148.41h6.6v-9.3a1.5,1.5,0,0,1,1.5-1.5h31.171a1.5,1.5,0,0,1,1.5,1.5v9.3h6.6a1.5,1.5,0,0,1,1.5,1.5v99.127a1.5,1.5,0,0,1-1.5,1.5H1357.79a1.5,1.5,0,0,1-1.5-1.5V149.91a1.5,1.5,0,0,1,1.5-1.5Zm8.1,3h-6.6v96.127h44.371V151.41h-6.6a1.5,1.5,0,0,1-1.5-1.5v-9.3H1367.39v9.3A1.5,1.5,0,0,1,1365.89,151.41Z" fill="#1a1818" fill-rule="evenodd"/>
        <path id="Path_241" data-name="Path 241" d="M1159.789,172.71h56.373a1.5,1.5,0,0,1,1.5,1.5v9a1.5,1.5,0,0,1-1.5,1.5h-3.9v64.326a1.5,1.5,0,0,1-1.5,1.5h-50.973a1.5,1.5,0,0,1-1.5-1.5V184.711h-3.9a1.5,1.5,0,0,1-1.5-1.5v-9a1.5,1.5,0,0,1,1.5-1.5Zm50.973,3h-54.873v6h3.9a1.5,1.5,0,0,1,1.5,1.5v64.326h47.973V183.211a1.5,1.5,0,0,1,1.5-1.5h3.9v-6Z" fill="#1a1818" fill-rule="evenodd"/>
        <path id="Path_242" data-name="Path 242" d="M1129.639,117.936h5.126v-8.523a1.5,1.5,0,0,1,1.5-1.5h4.8v-5.249a1.5,1.5,0,0,1,1.5-1.5h4.137V65.091a1.5,1.5,0,0,1,1.5-1.5h6.075a1.5,1.5,0,0,1,1.5,1.5v36.072h4.137a1.5,1.5,0,0,1,1.5,1.5v5.249h4.8a1.5,1.5,0,0,1,1.5,1.5v8.523h5.126a1.5,1.5,0,0,1,1.5,1.5v129.6a1.5,1.5,0,0,1-1.5,1.5h-43.2a1.5,1.5,0,0,1-1.5-1.5v-129.6a1.5,1.5,0,0,1,1.5-1.5Zm6.626,3h-5.125v126.6h40.2v-126.6h-5.125a1.5,1.5,0,0,1-1.5-1.5v-8.523h-4.8a1.5,1.5,0,0,1-1.5-1.5v-5.25h-4.137a1.5,1.5,0,0,1-1.5-1.5V66.591H1149.7v36.072a1.5,1.5,0,0,1-1.5,1.5h-4.137v5.25a1.5,1.5,0,0,1-1.5,1.5h-4.8v8.523A1.5,1.5,0,0,1,1136.265,120.936Z" fill="#1a1818" fill-rule="evenodd"/>
        <path id="Path_243" data-name="Path 243" d="M1079.647,187.125h14.7v-8.86a1.5,1.5,0,0,1,1.5-1.5h24.3a1.5,1.5,0,0,1,1.5,1.5v8.86h14.7a1.5,1.5,0,0,1,1.5,1.5v60.411a1.5,1.5,0,0,1-1.5,1.5h-56.7a1.5,1.5,0,0,1-1.5-1.5V188.626a1.5,1.5,0,0,1,1.5-1.5Zm16.2,3h-14.7v57.411h53.7V190.126h-14.7a1.5,1.5,0,0,1-1.5-1.5v-8.861h-21.3v8.861A1.5,1.5,0,0,1,1095.846,190.126Z" fill="#1a1818" fill-rule="evenodd"/>
        <path id="Path_244" data-name="Path 244" d="M1397.314,204.776l20.978-15.124a1.5,1.5,0,0,1,1.771.018l20.953,15.106h4.024a1.5,1.5,0,0,1,1.5,1.5v7.4a1.5,1.5,0,0,1-1.5,1.5h-2.149v33.859a1.5,1.5,0,0,1-1.5,1.5h-44.452a1.5,1.5,0,0,1-1.5-1.5V215.178h-2.149a1.5,1.5,0,0,1-1.5-1.5v-7.4a1.5,1.5,0,0,1,1.5-1.5Zm21.851-12.069-20.4,14.705a1.494,1.494,0,0,1-.98.364h-3v4.4h2.149a1.5,1.5,0,0,1,1.5,1.5v33.859h41.452V213.678a1.5,1.5,0,0,1,1.5-1.5h2.149v-4.4h-3v-.005a1.486,1.486,0,0,1-.873-.282Z" fill="#1a1818" fill-rule="evenodd"/>
      </g>
    </g>
  </g>
</svg>